<svg width={46} height={20} viewBox="0 0 46 20" fill="none" xmlns="http://www.w3.org/2000/svg">
  <g clipPath="url(#clip0_395_35)">
    <path d="M10 0H35.5066C41.0273 0 45.5066 4.47939 45.5066 10C45.5066 15.5206 41.0273 20 35.5066 20H10C4.47939 20 0 15.5276 0 10C0 4.47939 4.47939 0 10 0Z" fill="#00A9E0" />
    <path d="M9.21036 11.4675L6.17053 6.478H9.07759L10.5171 9.01468H10.608L12.0545 6.47101H14.8987L11.8589 11.4675V13.564H9.20338L9.21036 11.4675Z" fill="white" />
    <path d="M14.13 10.021C14.13 7.65198 15.7512 6.21243 18.3229 6.21243C20.8945 6.21243 22.5157 7.65198 22.5157 10.021C22.5157 12.3899 20.8945 13.8295 18.3229 13.8295C15.7512 13.8295 14.13 12.3899 14.13 10.021ZM19.9301 10.021C19.9301 8.97973 19.3222 8.37875 18.3229 8.37875C17.3236 8.37875 16.7226 8.97973 16.7226 10.021C16.7226 11.0622 17.3236 11.6632 18.3229 11.6632C19.3222 11.6632 19.9301 11.0622 19.9301 10.021Z" fill="white" />
    <path d="M22.942 10.0419C22.942 7.67295 24.6331 6.27533 27.1349 6.27533C28.3578 6.27533 29.2243 6.56883 29.9022 6.95318V9.34311H29.8812C29.0496 8.78406 28.3299 8.46261 27.4424 8.46261C26.3662 8.46261 25.5975 9.02166 25.5975 10.021C25.5975 11.0552 26.3872 11.5723 27.4284 11.5723C28.3508 11.5723 29.0916 11.2579 29.8812 10.6778H29.9022V13.0957C29.3431 13.4172 28.3648 13.7666 27.1139 13.7666C24.5283 13.7666 22.942 12.4109 22.942 10.0419Z" fill="white" />
    <path d="M30.3424 10.021C30.3424 7.65198 31.9637 6.21243 34.5353 6.21243C37.1069 6.21243 38.7282 7.65198 38.7282 10.021C38.7282 12.3899 37.1069 13.8295 34.5353 13.8295C31.9637 13.8295 30.3424 12.3899 30.3424 10.021ZM36.1425 10.021C36.1425 8.97973 35.5346 8.37875 34.5353 8.37875C33.536 8.37875 32.935 8.97973 32.935 10.021C32.935 11.0622 33.529 11.6632 34.5353 11.6632C35.5416 11.6632 36.1425 11.0622 36.1425 10.021Z" fill="white" />
  </g>
  <defs>
    <clipPath id="clip0_395_35">
      <rect width="45.5136" height={20} fill="white" />
    </clipPath>
  </defs>
</svg>

